<?xml version="1.0" encoding="utf-8"?>
<!-- Generator: Adobe Illustrator 21.1.0, SVG Export Plug-In . SVG Version: 6.00 Build 0)  -->
<svg version="1.1" id="Слой_1" xmlns="http://www.w3.org/2000/svg" xmlns:xlink="http://www.w3.org/1999/xlink" x="0px" y="0px"
	 viewBox="0 0 584 174" style="enable-background:new 0 0 584 174;" xml:space="preserve">
<style type="text/css">
	.st0{fill:#FFFFFF;}
</style>
<g>
	<g>
		<path class="st0" d="M119.7,121.2c4.9-6,7.9-13.6,7.9-22c0-8.2-2.8-15.9-8-22.1c3.1-3.3,4.9-7.7,4.9-12.4v-3.6h-3.6
			c-4.7,0-8.5-3.8-8.5-8.5s3.8-8.5,8.5-8.5h3.6V28.2H99.6c-22.1,0-40.1,18-40.1,40.1c0,13.6,6.8,25.6,17.1,32.8H47.8
			c-3.4,0-6.5,0.8-9.4,2.1V103c-5.9,0-10.7-4.8-10.7-10.7c0-5.9,4.8-10.7,10.7-10.7c9.9,0,17.9-8,17.9-17.9c0-8.1-5.4-15-12.8-17.2
			c-1.3-5.6-6.3-9.7-12.3-9.7c-5.9,0-14.6,7.6-17.1,9.9l-2.9,2.7l2.9,2.7c2.5,2.3,11.2,9.9,17.1,9.9c5.3,0,9.8-3.3,11.7-7.9
			c3.6,1.7,6.1,5.4,6.1,9.6c0,5.9-4.8,10.7-10.7,10.7c-9.9,0-17.9,8-17.9,17.9c0,7.2,4.3,13.5,10.5,16.3c-3.6,4-5.8,9.3-5.8,15h7.3
			c0-8.4,6.9-15.3,15.3-15.3h51.8V101c-13.5,0-25.1-8.2-30.2-19.9c4.9,3.8,12.4,6.5,23.8,6.5c19.4,0,23.6,9.9,23.8,24.7
			c-0.1,0.2-0.2,0.4-0.3,0.6H49.3l-1.1,1.6c-5.1,7.6-13.6,12.1-22.7,12.1h-3.6v21.8H41v-7.3H29.1v-7.5c9.5-1,18.1-5.9,23.9-13.5
			h57.5c-4.8,4-10.9,6.4-17.6,6.4H79.8v21.8h16.8V141h-9.5v-7.3H93c7.2,0,14-2.2,19.5-6v20.6h16.8V141h-9.5v-19.8H119.7z M31.3,54.8
			c-1.6,0-5.5-2.5-9.1-5.3c3.6-2.9,7.5-5.3,9.1-5.3c2.9,0,5.3,2.4,5.3,5.3C36.6,52.4,34.2,54.8,31.3,54.8z M93.2,80.4
			c-16.3,0-25.7-6.7-25.8-18.5c3-15.1,16.3-26.5,32.2-26.5h17.7v1.8c-7,1.6-12.2,7.9-12.2,15.4c0,7.3,5,13.5,11.7,15.3
			c-0.7,2.4-2.2,4.5-4.2,5.9l-4.1,2.4l3.4,3.3c3.6,3.4,6.1,7.7,7.4,12.3C115.1,85.2,107.3,80.4,93.2,80.4z"/>
		<rect x="54" y="141.2" class="st0" width="13.2" height="7.3"/>
		<path class="st0" d="M132.7,48.1c-2.8,0-5,2.2-5,5s2.2,5,5,5s8.2-5,8.2-5S135.5,48.1,132.7,48.1z"/>
	</g>
	<g>
		<path class="st0" d="M176.6,64.3V85h-8.2V44.8h0.3l20.5,23.5l20.4-23.5h0.3V85h-8.1V64.3l-12.3,14.4h-0.7L176.6,64.3z"/>
		<path class="st0" d="M221.6,46h27.2v6.9h-19.1v9h15.8v6.6h-15.8v9.6h19.7V85h-27.8L221.6,46L221.6,46z"/>
		<path class="st0" d="M257.6,78.1h1.2c7.4,0,7.5-16.4,7.5-20.6c0-4,0-6.8,0-11.5h29.1v32.1c1.5,0,3.1,0,4.6,0v16.3h-8.2V85h-26v9.4
			h-8.2V78.1z M274.3,55.8c0,6.8-0.2,20-5.8,22.3c7.2,0,11.6,0,18.8,0V52.9h-13C274.3,56.3,274.3,53,274.3,55.8z"/>
		<path class="st0" d="M308.9,86.2h-0.3V46h8.2v23.3l26.3-24.5h0.3V85h-8.2V61.5L308.9,86.2z"/>
		<path class="st0" d="M355.1,46h8.2v32.1h17.3V46h8.2v32.1h4.6v16.3h-8.2V85h-30V46H355.1z"/>
		<path class="st0" d="M402.2,86.2h-0.3V46h8.2v23.3l26.3-24.5h0.3V85h-8.2V61.5L402.2,86.2z"/>
		<path class="st0" d="M456.5,85h-8.2V46h8.2v15.9h17.6V46h8.1v39h-8.1V68.5h-17.6V85z"/>
		<path class="st0" d="M518.3,78.2h-16.1l-3.1,6.8h-8.2l19.3-40.2h0.4L529.7,85h-8.2L518.3,78.2z M504.8,72.2h11L510.3,60
			L504.8,72.2z"/>
		<path class="st0" d="M176.6,126.9l15.8-17.9h9.6l-17.3,18.5v0.4l19,20.1h-10.3l-16.8-19.2V148h-8.2v-39h8.2V126.9z"/>
		<path class="st0" d="M234.5,141.2h-16.1l-3.1,6.8h-8.2l19.3-40.2h0.4L246,148h-8.2L234.5,141.2z M220.9,135.2h11l-5.5-12.2
			L220.9,135.2z"/>
		<path class="st0" d="M262.7,126.9l15.8-17.9h9.6l-17.3,18.5v0.4l19,20.1h-10.3l-16.8-19.2V148h-8.2v-39h8.2L262.7,126.9
			L262.7,126.9z"/>
		<path class="st0" d="M346.2,115.9h-19.4v7h8.1c7.5,0,14.7,3.2,14.7,12.2s-7.2,13-14.7,13h-16.3v-39h27.5L346.2,115.9L346.2,115.9z
			 M326.8,129.6v11.6h5.1c6.2,0,9.5-1.2,9.5-6.2c0-4.8-3.4-5.5-9.5-5.5L326.8,129.6L326.8,129.6z"/>
		<path class="st0" d="M360.4,149.2h-0.3V109h8.2v23.3l26.3-24.5h0.3V148h-8.2v-23.5L360.4,149.2z"/>
		<path class="st0" d="M410.2,136.8c3.5,3.6,6.7,5.1,11.3,5.1c6.2,0,9.1-2.7,9.1-5.8c0-5.5-4.8-5.9-9.7-5.9h-3.5v-6.5h3.2
			c6.4,0,8.2-1.9,8.2-4.6c0-3.1-3.5-4.3-8.3-4.3c-3.4,0-6.8,1-9.7,4.6l-4.8-5c3.9-5.3,10.8-6.3,15.1-6.3c9.5,0,15.7,3.6,15.7,10.1
			c0,3.6-1.8,7.9-7,8.6v0.4c6.9,1.2,8.8,5.2,8.8,9.4c0,6.5-5.3,12.2-17,12.2c-6.3,0-12.6-1.9-16.3-7.1L410.2,136.8z"/>
		<path class="st0" d="M457.3,148h-8.2v-39h8.2v15.9h17.6V109h8.1v39h-8.1v-16.5h-17.6V148z"/>
		<path class="st0" d="M494.7,109h27.2v6.9h-19.1v9h15.8v6.6h-15.8v9.6h19.7v6.9h-27.8L494.7,109L494.7,109z"/>
		<path class="st0" d="M550.7,141.9c4.6,0,7.7-1.7,10.3-5.3l5.8,4.3c-3.7,5.8-9.1,8.1-16.1,8.1c-11.8,0-20-7.4-20-20.1
			s8-20.7,19.9-20.7c7.1,0,11.9,2.3,15.6,7.6l-5.6,4.6c-2.9-4-5.4-5.2-10-5.2c-6,0-11.6,3.9-11.6,13.4
			C538.9,138.5,544.7,141.9,550.7,141.9z"/>
	</g>
</g>
</svg>
