<?xml version="1.0" standalone="no"?>
<!DOCTYPE svg PUBLIC "-//W3C//DTD SVG 20010904//EN"
 "http://www.w3.org/TR/2001/REC-SVG-20010904/DTD/svg10.dtd">
<svg version="1.0" xmlns="http://www.w3.org/2000/svg"
 width="256.000000pt" height="256.000000pt" viewBox="0 0 256.000000 256.000000"
 preserveAspectRatio="xMidYMid meet">
<metadata>
Created by potrace 1.11, written by Peter Selinger 2001-2013
</metadata>
<g transform="translate(0.000000,256.000000) scale(0.100000,-0.100000)"
fill="#000000" stroke="none">
<path d="M0 1280 l0 -1280 1280 0 1280 0 0 1280 0 1280 -1280 0 -1280 0 0
-1280z m2218 1008 l-3 -153 -66 -6 c-81 -7 -123 -34 -151 -97 -53 -118 38
-232 186 -232 l38 0 -7 -72 c-8 -82 -26 -134 -65 -193 l-27 -40 29 -40 c79
-107 118 -232 118 -380 0 -154 -32 -262 -111 -377 l-39 -58 0 -190 0 -190 95
0 95 0 0 -70 0 -70 -165 0 -165 0 0 195 0 194 -82 -39 c-102 -49 -195 -70
-315 -70 l-93 0 0 -70 0 -70 95 0 95 0 0 -70 0 -70 -165 0 -165 0 0 210 0 210
148 0 c169 0 253 15 338 58 128 65 158 61 -450 62 l-548 0 -80 -75 c-93 -87
-202 -146 -313 -168 l-70 -14 -3 -71 -3 -72 116 0 115 0 0 -70 0 -70 -185 0
-185 0 0 210 0 210 68 0 c170 0 339 84 429 214 l38 55 654 1 653 0 -7 73 c-20
215 -85 322 -232 377 -44 17 -95 24 -208 31 -194 12 -292 31 -387 78 -43 20
-78 34 -78 30 0 -24 112 -168 164 -211 101 -84 258 -148 366 -148 l40 0 0 -75
0 -75 -532 0 c-514 0 -535 -1 -578 -21 -24 -11 -59 -31 -77 -45 -44 -34 -91
-118 -99 -177 l-7 -47 -68 0 -69 0 0 34 c0 52 36 158 70 204 16 23 30 45 30
49 0 5 -20 20 -45 35 -95 58 -151 176 -143 306 11 178 133 299 323 320 120 14
179 53 210 141 28 81 12 146 -52 211 -43 43 -46 44 -57 25 -6 -11 -31 -40 -56
-65 -68 -68 -155 -87 -242 -53 -64 24 -167 95 -244 166 l-67 63 99 83 c121
101 221 153 293 153 94 0 193 -67 222 -151 8 -21 25 -37 64 -56 166 -81 238
-283 160 -452 -55 -122 -179 -203 -310 -203 -58 0 -137 -42 -171 -91 -60 -87
-38 -217 49 -280 54 -39 98 -46 173 -26 52 14 116 17 369 17 l308 0 -75 73
c-41 39 -89 93 -107 120 -45 66 -97 180 -118 257 -24 90 -24 291 1 379 66 241
238 435 467 528 113 46 165 51 477 52 l293 1 -3 -152z m188 -238 c15 -6 49
-27 76 -47 47 -34 48 -36 32 -54 -37 -42 -107 -79 -146 -79 -84 0 -121 99 -59
161 31 31 53 35 97 19z m-1296 -1860 l0 -70 -130 0 -130 0 0 70 0 70 130 0
130 0 0 -70z"/>
<path d="M1585 2284 c-210 -51 -398 -233 -459 -444 -20 -68 -10 -137 31 -212
34 -63 81 -104 158 -138 80 -37 142 -48 320 -59 216 -13 329 -53 427 -154 35
-36 40 -38 33 -17 -14 49 -60 116 -124 184 -60 62 -64 69 -47 80 78 47 136
107 136 141 0 6 -20 18 -45 28 -96 40 -175 164 -175 276 0 118 76 235 180 280
28 12 50 28 50 36 0 21 -397 20 -485 -1z"/>
<path d="M334 2094 c-82 -49 -92 -60 -74 -78 32 -31 135 -86 162 -86 16 0 41
12 60 29 27 24 33 36 33 71 0 35 -6 47 -33 71 -43 38 -75 37 -148 -7z"/>
</g>
</svg>
