<svg id="Слой_1" xmlns="http://www.w3.org/2000/svg" viewBox="0 0 584 174">
    <style>
        .st0{fill:#fff}
    </style>
    <path class="st0" d="M119.7 121.2c4.9-6 7.9-13.6 7.9-22 0-8.2-2.8-15.9-8-22.1 3.1-3.3 4.9-7.7 4.9-12.4v-3.6h-3.6c-4.7 0-8.5-3.8-8.5-8.5s3.8-8.5 8.5-8.5h3.6V28.2H99.6c-22.1 0-40.1 18-40.1 40.1 0 13.6 6.8 25.6 17.1 32.8H47.8c-3.4 0-6.5.8-9.4 2.1v-.2c-5.9 0-10.7-4.8-10.7-10.7 0-5.9 4.8-10.7 10.7-10.7 9.9 0 17.9-8 17.9-17.9 0-8.1-5.4-15-12.8-17.2-1.3-5.6-6.3-9.7-12.3-9.7-5.9 0-14.6 7.6-17.1 9.9l-2.9 2.7 2.9 2.7c2.5 2.3 11.2 9.9 17.1 9.9 5.3 0 9.8-3.3 11.7-7.9 3.6 1.7 6.1 5.4 6.1 9.6 0 5.9-4.8 10.7-10.7 10.7-9.9 0-17.9 8-17.9 17.9 0 7.2 4.3 13.5 10.5 16.3-3.6 4-5.8 9.3-5.8 15h7.3c0-8.4 6.9-15.3 15.3-15.3h51.8V101c-13.5 0-25.1-8.2-30.2-19.9 4.9 3.8 12.4 6.5 23.8 6.5 19.4 0 23.6 9.9 23.8 24.7l-.3.6H49.3l-1.1 1.6c-5.1 7.6-13.6 12.1-22.7 12.1h-3.6v21.8H41v-7.3H29.1v-7.5c9.5-1 18.1-5.9 23.9-13.5h57.5c-4.8 4-10.9 6.4-17.6 6.4H79.8v21.8h16.8V141h-9.5v-7.3H93c7.2 0 14-2.2 19.5-6v20.6h16.8V141h-9.5v-19.8h-.1zM31.3 54.8c-1.6 0-5.5-2.5-9.1-5.3 3.6-2.9 7.5-5.3 9.1-5.3 2.9 0 5.3 2.4 5.3 5.3s-2.4 5.3-5.3 5.3zm61.9 25.6c-16.3 0-25.7-6.7-25.8-18.5 3-15.1 16.3-26.5 32.2-26.5h17.7v1.8c-7 1.6-12.2 7.9-12.2 15.4 0 7.3 5 13.5 11.7 15.3-.7 2.4-2.2 4.5-4.2 5.9l-4.1 2.4 3.4 3.3c3.6 3.4 6.1 7.7 7.4 12.3-4.2-6.6-12-11.4-26.1-11.4z"/>
    <path class="st0" d="M54 141.2h13.2v7.3H54z"/>
    <path class="st0" d="M132.7 48.1c-2.8 0-5 2.2-5 5s2.2 5 5 5 8.2-5 8.2-5-5.4-5-8.2-5z"/>
    <g>
        <path class="st0" d="M176.6 64.3V85h-8.2V44.8h.3l20.5 23.5 20.4-23.5h.3V85h-8.1V64.3l-12.3 14.4h-.7l-12.2-14.4z"/>
        <path class="st0" d="M221.6 46h27.2v6.9h-19.1v9h15.8v6.6h-15.8v9.6h19.7V85h-27.8V46z"/>
        <path class="st0" d="M257.6 78.1h1.2c7.4 0 7.5-16.4 7.5-20.6V46h29.1v32.1h4.6v16.3h-8.2V85h-26v9.4h-8.2V78.1zm16.7-22.3c0 6.8-.2 20-5.8 22.3h18.8V52.9h-13v2.9z"/>
        <path class="st0" d="M308.9 86.2h-.3V46h8.2v23.3l26.3-24.5h.3V85h-8.2V61.5l-26.3 24.7z"/>
        <path class="st0" d="M355.1 46h8.2v32.1h17.3V46h8.2v32.1h4.6v16.3h-8.2V85h-30V46h-.1z"/>
        <path class="st0" d="M402.2 86.2h-.3V46h8.2v23.3l26.3-24.5h.3V85h-8.2V61.5l-26.3 24.7z"/>
        <path class="st0" d="M456.5 85h-8.2V46h8.2v15.9h17.6V46h8.1v39h-8.1V68.5h-17.6V85z"/>
        <path class="st0" d="M518.3 78.2h-16.1l-3.1 6.8h-8.2l19.3-40.2h.4L529.7 85h-8.2l-3.2-6.8zm-13.5-6h11L510.3 60l-5.5 12.2z"/>
        <path class="st0" d="M176.6 126.9l15.8-17.9h9.6l-17.3 18.5v.4l19 20.1h-10.3l-16.8-19.2V148h-8.2v-39h8.2v17.9z"/>
        <path class="st0" d="M234.5 141.2h-16.1l-3.1 6.8h-8.2l19.3-40.2h.4L246 148h-8.2l-3.3-6.8zm-13.6-6h11l-5.5-12.2-5.5 12.2z"/>
        <path class="st0" d="M262.7 126.9l15.8-17.9h9.6l-17.3 18.5v.4l19 20.1h-10.3l-16.8-19.2V148h-8.2v-39h8.2v17.9z"/>
        <path class="st0" d="M346.2 115.9h-19.4v7h8.1c7.5 0 14.7 3.2 14.7 12.2s-7.2 13-14.7 13h-16.3v-39h27.5l.1 6.8zm-19.4 13.7v11.6h5.1c6.2 0 9.5-1.2 9.5-6.2 0-4.8-3.4-5.5-9.5-5.5l-5.1.1z"/>
        <path class="st0" d="M360.4 149.2h-.3V109h8.2v23.3l26.3-24.5h.3V148h-8.2v-23.5l-26.3 24.7z"/>
        <path class="st0" d="M410.2 136.8c3.5 3.6 6.7 5.1 11.3 5.1 6.2 0 9.1-2.7 9.1-5.8 0-5.5-4.8-5.9-9.7-5.9h-3.5v-6.5h3.2c6.4 0 8.2-1.9 8.2-4.6 0-3.1-3.5-4.3-8.3-4.3-3.4 0-6.8 1-9.7 4.6l-4.8-5c3.9-5.3 10.8-6.3 15.1-6.3 9.5 0 15.7 3.6 15.7 10.1 0 3.6-1.8 7.9-7 8.6v.4c6.9 1.2 8.8 5.2 8.8 9.4 0 6.5-5.3 12.2-17 12.2-6.3 0-12.6-1.9-16.3-7.1l4.9-4.9z"/>
        <path class="st0" d="M457.3 148h-8.2v-39h8.2v15.9h17.6V109h8.1v39h-8.1v-16.5h-17.6V148z"/>
        <path class="st0" d="M494.7 109h27.2v6.9h-19.1v9h15.8v6.6h-15.8v9.6h19.7v6.9h-27.8v-39z"/>
        <path class="st0" d="M550.7 141.9c4.6 0 7.7-1.7 10.3-5.3l5.8 4.3c-3.7 5.8-9.1 8.1-16.1 8.1-11.8 0-20-7.4-20-20.1s8-20.7 19.9-20.7c7.1 0 11.9 2.3 15.6 7.6l-5.6 4.6c-2.9-4-5.4-5.2-10-5.2-6 0-11.6 3.9-11.6 13.4-.1 9.9 5.7 13.3 11.7 13.3z"/>
    </g>
</svg>
